<?xml version="1.0" encoding="UTF-8"?>
<svg version="1.1" xmlns="http://www.w3.org/2000/svg" width="1080" height="1080">
<path d="M0 0 C7.84562224 4.27550423 13.16559376 11.95639255 18.25 19.0625 C19.48725382 20.76637153 20.72553759 22.46949564 21.96484375 24.171875 C22.85985596 25.40454102 22.85985596 25.40454102 23.77294922 26.66210938 C26.67175554 30.62469004 29.68117102 34.49737953 32.6875 38.37890625 C41.52108661 49.78560957 50.22791224 61.29225736 58.86547852 72.84790039 C62.96084419 78.3195831 67.10244768 83.75530758 71.25 89.1875 C76.63873058 96.24530642 81.99316981 103.32724295 87.3125 110.4375 C92.0682522 116.79293648 96.8578147 123.11697087 101.7109375 129.3984375 C110.22028172 140.42324606 118.6448487 151.51521337 126.98046875 162.671875 C130.37541069 167.19846425 133.81743192 171.68943217 137.25 176.1875 C142.00468006 182.4186796 146.74504233 188.65931525 151.4375 194.9375 C156.00535142 201.04879779 160.61987374 207.12326383 165.25 213.1875 C171.28096301 221.0864604 177.26105482 229.02170244 183.21411133 236.97949219 C186.59151582 241.48986603 189.99150657 245.97931708 193.4375 250.4375 C194.6269942 251.98344196 195.81643688 253.52942392 197.00488281 255.07617188 C198.08547275 256.48012854 199.16859223 257.88213881 200.25292969 259.28320312 C202.28204413 261.910991 204.29797757 264.54851428 206.3125 267.1875 C206.95574219 268.01572266 207.59898437 268.84394531 208.26171875 269.69726562 C216.28330992 280.26043463 218.94032141 288.7179913 217.4375 301.9375 C215.32060131 309.449076 210.80892271 314.60366877 204.4375 318.9375 C197.07204451 322.68275001 189.35272884 324.12988949 181.26708984 325.47338867 C179.32521931 325.80978347 179.32521931 325.80978347 177.34411907 326.15297413 C173.78170352 326.76985331 170.217095 327.3730817 166.65196729 327.97405815 C162.80744523 328.62474467 158.96519584 329.28860033 155.12266541 329.95092773 C147.62774914 331.2408061 140.13094924 332.51938249 132.63342768 333.79402006 C123.03174475 335.42682574 113.43220728 337.07210618 103.83276367 338.71801758 C101.16305053 339.17571179 98.49333545 339.63339467 95.82361895 340.09106928 C94.03059635 340.39845558 92.2375775 340.70586376 90.44456238 341.01329368 C84.99606205 341.94736811 79.54732208 342.88003068 74.09841222 343.81171292 C49.96487162 347.93869661 25.84360465 352.13083033 1.73223114 356.38536644 C-3.29819296 357.27284213 -8.32905904 358.15779208 -13.36004639 359.04206848 C-14.17651123 359.18559818 -14.99297606 359.32912789 -15.83418226 359.47700697 C-19.09111531 360.04954782 -22.34805319 360.62206111 -25.60502434 361.19438517 C-35.05310502 362.85480154 -44.49967078 364.52332433 -53.9440468 366.20468771 C-59.85386083 367.25596682 -65.76548402 368.29663789 -71.67857283 369.32933652 C-75.06908932 369.92186049 -78.45860471 370.51901232 -81.84593391 371.1295166 C-119.8288038 377.94992269 -119.8288038 377.94992269 -130.484375 371.48046875 C-137.91154386 365.96593548 -142.52864323 360.29859832 -144.0402832 350.99780273 C-144.85105125 336.65890496 -139.5139311 323.4750869 -135.02602005 310.07836533 C-133.80954023 306.42840558 -132.62112801 302.76934407 -131.43139648 299.1105957 C-129.95020596 294.55930497 -128.46774557 290.0084771 -126.97483826 285.46101379 C-123.73735274 275.59458779 -120.57265933 265.70831588 -117.48828125 255.79296875 C-117.28644352 255.14413349 -117.08460579 254.49529823 -116.87665176 253.8268013 C-115.86265468 250.56501914 -114.85046315 247.30268012 -113.8392334 244.04003906 C-111.78815166 237.42374967 -109.72534251 230.81111724 -107.66015625 224.19921875 C-107.45344173 223.537299 -107.24672722 222.87537926 -107.03374863 222.19340134 C-101.94861668 205.91851424 -96.75594276 189.67807508 -91.5625 173.4375 C-84.6140112 151.70773657 -77.72502858 129.96096357 -70.93426514 108.18136597 C-69.90857936 104.89221411 -68.88195932 101.60335388 -67.85546875 98.31445312 C-66.23867321 93.13354437 -64.62211633 87.95256118 -63.00585938 82.77148438 C-62.80613777 82.1312735 -62.60641617 81.49106262 -62.4006424 80.83145142 C-61.36426152 77.50898713 -60.32836828 74.18637171 -59.29321289 70.86352539 C-56.98558749 63.45652486 -54.67416267 56.05074859 -52.35190964 48.64831924 C-51.36800218 45.51148673 -50.38719373 42.37374344 -49.41101074 39.23449707 C-48.34278736 35.80016182 -47.26616178 32.3685686 -46.1875 28.9375 C-45.87798401 27.9353949 -45.56846802 26.93328979 -45.24957275 25.90081787 C-41.24097981 13.23096144 -36.54264603 5.25757704 -24.5625 -1.0625 C-17.15178885 -3.53273705 -7.09785453 -3.34081116 0 0 Z M-10.5625 47.9375 C-16.09665636 64.26997878 -21.34631175 80.67956095 -26.45410156 97.14990234 C-28.63107964 104.16870494 -30.81854069 111.18424249 -33.0078125 118.19921875 C-33.34827984 119.29031511 -33.34827984 119.29031511 -33.69562531 120.40345383 C-38.68436105 136.38350516 -43.77086281 152.33191714 -48.87127686 168.27660751 C-56.64087418 192.56581805 -64.32602103 216.87922274 -71.90661621 241.22808838 C-76.64804916 256.45733344 -81.41935509 271.67626332 -86.2578125 286.875 C-86.49246845 287.61238026 -86.7271244 288.34976051 -86.96889114 289.10948563 C-89.24845899 296.27228409 -91.53075069 303.43419624 -93.82159996 310.59339523 C-94.45251195 312.56634673 -95.08220512 314.53968237 -95.71139526 316.51318359 C-96.47978056 318.92263753 -97.25044067 321.33136757 -98.02371216 323.73925781 C-98.3603891 324.7964502 -98.69706604 325.85364258 -99.04394531 326.94287109 C-99.48640594 328.32543594 -99.48640594 328.32543594 -99.93780518 329.7359314 C-100.65349117 331.87676025 -100.65349117 331.87676025 -100.5625 333.9375 C-71.34385638 329.29016244 -42.18455219 324.312423 -13.02923799 319.28490424 C-7.93525136 318.40668462 -2.84108205 317.52952702 2.25307924 316.65232116 C14.92821004 314.46962212 27.60293897 312.28460013 40.27748857 310.09852914 C51.27287729 308.2021624 62.26884204 306.30915845 73.26506289 304.41762342 C84.62328374 302.46378273 95.98108695 300.507533 107.33847982 298.54888469 C113.68923767 297.45369492 120.04015868 296.35947409 126.39150047 295.2676754 C132.32915578 294.24689547 138.2662823 293.22309561 144.20300484 292.19690514 C146.3837941 291.82047987 148.56477286 291.44515064 150.74594879 291.07097244 C153.71059688 290.56221748 156.67454943 290.04959173 159.63835144 289.53593445 C160.50998733 289.38730208 161.38162322 289.2386697 162.27967232 289.08553332 C166.48138079 288.41680041 166.48138079 288.41680041 170.4375 286.9375 C168.67348437 282.87215364 165.97863332 279.50144921 163.3125 276 C162.79260498 275.31196289 162.27270996 274.62392578 161.73706055 273.91503906 C159.97478424 271.5859397 158.20684056 269.26123702 156.4375 266.9375 C155.78249512 266.07688965 155.12749023 265.2162793 154.45263672 264.32958984 C151.68738927 260.69769185 148.92089506 257.06675193 146.15185547 253.43774414 C142.03856345 248.04612963 137.95347279 242.63574275 133.89453125 237.203125 C130.49958931 232.67653575 127.05756808 228.18556783 123.625 223.6875 C118.87031994 217.4563204 114.12995767 211.21568475 109.4375 204.9375 C104.86964858 198.82620221 100.25512626 192.75173617 95.625 186.6875 C90.23626942 179.62969358 84.88183019 172.54775705 79.5625 165.4375 C74.8067478 159.08206352 70.0171853 152.75802913 65.1640625 146.4765625 C56.65471828 135.45175394 48.2301513 124.35978663 39.89453125 113.203125 C36.49958931 108.67653575 33.05756808 104.18556783 29.625 99.6875 C24.87031525 93.45631425 20.13045854 87.21531498 15.4375 80.9375 C10.62332573 74.5063192 5.7897454 68.09001153 0.9375 61.6875 C0.25429688 60.78128906 -0.42890625 59.87507813 -1.1328125 58.94140625 C-1.77992188 58.08933594 -2.42703125 57.23726563 -3.09375 56.359375 C-3.66673828 55.60237305 -4.23972656 54.84537109 -4.83007812 54.06542969 C-6.61657183 51.8710837 -8.52914239 49.90293055 -10.5625 47.9375 Z " fill="#9B2C6D" transform="translate(486.5625,328.0625)"/>
<path d="M0 0 C25.41593013 23.8879183 33.81206443 59.91911043 35.07421875 93.46875 C35.65577129 129.99751874 22.90380526 161.67594143 -2.11328125 188.14453125 C-2.84804688 188.94375 -3.5828125 189.74296875 -4.33984375 190.56640625 C-16.37100869 203.20114134 -30.6947464 212.22733423 -46.11328125 220.14453125 C-47.28141357 220.75893066 -47.28141357 220.75893066 -48.47314453 221.38574219 C-85.37977094 240.67082823 -128.59920193 250.14156505 -170.11328125 251.14453125 C-170.85449219 251.16499512 -171.59570312 251.18545898 -172.359375 251.20654297 C-182.06586077 251.44448559 -191.59732166 251.12314144 -201.2578125 250.1328125 C-202.21288696 250.03826782 -203.16796143 249.94372314 -204.15197754 249.84631348 C-206.47280428 249.61604679 -208.79319028 249.38207713 -211.11328125 249.14453125 C-211.73108455 226.46649692 -212.34847062 203.78845126 -212.96541405 181.11039352 C-213.2521502 170.570661 -213.53900694 160.03093179 -213.82617188 149.49121094 C-213.93750946 145.40429713 -214.04883541 141.31738301 -214.16015625 137.23046875 C-214.2014304 135.71533141 -214.2014304 135.71533141 -214.24353838 134.16958523 C-214.54815749 122.98552606 -214.85196614 111.8014457 -215.15374756 100.61730957 C-215.18076775 99.61609274 -215.20778795 98.61487592 -215.23562694 97.58331919 C-215.34378364 93.57526441 -215.45193492 89.56720949 -215.55997801 85.55915165 C-215.8682686 74.12574058 -216.18012747 62.69244244 -216.49967182 51.25934005 C-216.69443415 44.28912981 -216.88651291 37.31884923 -217.07656872 30.34850907 C-217.18510303 26.37345484 -217.29499804 22.39845145 -217.40885544 18.42354584 C-217.98363986 -1.67548252 -218.22885853 -21.74787974 -218.11328125 -41.85546875 C-214.98252355 -43.4208476 -211.5976772 -43.21914561 -208.15234375 -43.390625 C-207.34379944 -43.43378342 -206.53525513 -43.47694183 -205.70220947 -43.52140808 C-203.04784987 -43.66009532 -200.39319138 -43.79027127 -197.73828125 -43.91796875 C-196.82870667 -43.96215942 -195.91913208 -44.0063501 -194.98199463 -44.05187988 C-128.23093434 -47.2442772 -52.90217714 -46.4483071 0 0 Z M-177.11328125 -7.85546875 C-177.3261105 13.90133516 -176.74132542 35.62541708 -176.13656735 57.37155032 C-175.9974081 62.39640954 -175.86178606 67.4213646 -175.72557068 72.44630432 C-175.49691607 80.86018876 -175.26531917 89.27398834 -175.03198242 97.68774414 C-174.76301857 107.38775818 -174.49917644 117.08790179 -174.23792607 126.78812641 C-174.01204533 135.170141 -173.78342598 143.55207766 -173.55253452 151.93395573 C-173.41525017 156.91771411 -173.27887998 161.90149269 -173.14499092 166.88534355 C-173.019296 171.55849072 -172.89014557 176.23153023 -172.75839615 180.9045105 C-172.71083953 182.61080203 -172.66445142 184.31712662 -172.61936378 186.02348518 C-172.38777318 194.76023926 -172.07996898 203.45083972 -171.11328125 212.14453125 C-122.00985174 213.16219187 -70.95060194 203.6716473 -34.05004883 168.61816406 C-15.87493647 150.68361477 -3.31398901 127.63502357 -2.87182617 101.68823242 C-2.77630207 75.34814417 -10.14727017 50.86565887 -28.11328125 31.14453125 C-28.72558594 30.45101562 -29.33789062 29.7575 -29.96875 29.04296875 C-55.3366016 1.89017236 -97.23643921 -8.61891837 -133.04052734 -10.0078125 C-147.81539707 -10.40399775 -162.50651712 -10.31099139 -177.11328125 -7.85546875 Z " fill="#9B2C6D" transform="translate(944.11328125,410.85546875)"/>
<path d="M0 0 C0.13280631 9.20790398 -0.09814108 18.36469412 -0.50390625 27.5625 C-0.55131958 28.66658203 -0.59873291 29.77066406 -0.64758301 30.90820312 C-0.76362079 33.6055342 -0.88112424 36.30279276 -1 39 C-18.583144 39.34353836 -36.16647592 39.67649042 -53.75 40 C-55.68615236 40.03563175 -55.68615236 40.03563175 -57.66141891 40.07198334 C-96.44563835 40.78258265 -135.20901208 41.33143795 -174 41 C-173.93148331 41.6267865 -173.86296661 42.253573 -173.79237366 42.89935303 C-172.79946807 53.13664587 -172.7742062 63.36529976 -172.68359375 73.640625 C-172.66298281 75.61888014 -172.64198538 77.59713128 -172.62062073 79.57537842 C-172.56582702 84.74388362 -172.5162322 89.91242569 -172.46777344 95.08099365 C-172.41724354 100.3704348 -172.36172303 105.6598234 -172.30664062 110.94921875 C-172.19958259 121.29943412 -172.09802477 131.64969541 -172 142 C-170.85646561 141.9498877 -169.71293121 141.89977539 -168.53474426 141.84814453 C-157.66625625 141.37246404 -146.79756639 140.90165128 -135.92866993 140.43539429 C-130.34320916 140.19563657 -124.75782853 139.95426662 -119.17260742 139.70898438 C-113.76514283 139.47157176 -108.35749907 139.23869142 -102.94971275 139.00872803 C-100.90438791 138.92099705 -98.85912807 138.83173436 -96.81394386 138.74078369 C-83.19416651 138.1364358 -69.63439717 137.91781866 -56 138 C-56 150.54 -56 163.08 -56 176 C-59.35083611 176.67016722 -62.12178281 177.14900294 -65.4577179 177.31007385 C-66.75067276 177.375242 -66.75067276 177.375242 -68.06974792 177.44172668 C-69.46861992 177.50646431 -69.46861992 177.50646431 -70.89575195 177.57250977 C-71.88824951 177.62142365 -72.88074707 177.67033752 -73.90332031 177.72073364 C-77.18147281 177.88131836 -80.4598577 178.03646183 -83.73828125 178.19140625 C-86.02126877 178.30180399 -88.30424285 178.41247998 -90.58720398 178.52342224 C-95.37272399 178.75518065 -100.15835675 178.98439593 -104.9440918 179.21166992 C-111.06739188 179.50254953 -117.19043731 179.79842634 -123.31341267 180.09605503 C-128.02917625 180.32494537 -132.745035 180.55182088 -137.46092796 180.77802849 C-139.71791007 180.88640662 -141.97486968 180.99525426 -144.2318058 181.10458565 C-147.39313623 181.25729426 -150.55457786 181.40744857 -153.71606445 181.55688477 C-155.10582741 181.62465874 -155.10582741 181.62465874 -156.52366638 181.69380188 C-161.68944016 181.93490439 -166.82856792 182.04266024 -172 182 C-171.9285376 182.7336377 -171.8570752 183.46727539 -171.78344727 184.22314453 C-170.77233727 196.10390778 -170.88879869 207.96063726 -170.9375 219.875 C-170.94252657 222.02734271 -170.94708742 224.17968655 -170.95117188 226.33203125 C-170.96122323 231.55471438 -170.97996197 236.77734749 -171 242 C-170.38949358 241.94960131 -169.77898716 241.89920261 -169.14998055 241.84727669 C-150.61073729 240.33258163 -132.05925329 239.20147226 -113.4878974 238.18177938 C-109.54944689 237.96492515 -105.61117568 237.74485914 -101.67288208 237.525177 C-94.26130688 237.11221898 -86.84958155 236.70202555 -79.43779385 236.29290116 C-70.98015514 235.82590595 -62.52269506 235.35571328 -54.06524634 234.88529181 C-36.71035601 233.92004531 -19.3552309 232.95910662 -2 232 C-1.67 245.2 -1.34 258.4 -1 272 C-23.04835498 273.51635419 -45.09932977 274.82439082 -67.16686869 276.02014971 C-70.77597762 276.21589417 -74.38502782 276.41271105 -77.99408138 276.60947359 C-86.50491238 277.07341586 -95.01584952 277.53537291 -103.52685547 277.99609375 C-112.26269132 278.46902819 -120.99831364 278.94577414 -129.73384678 279.42426455 C-137.29963079 279.83852675 -144.86554934 280.25026647 -152.43157756 280.66004407 C-156.92302559 280.90333689 -161.41441606 281.14758773 -165.90567398 281.39436722 C-170.11325262 281.6254656 -174.32099148 281.85339674 -178.52886963 282.07897377 C-180.06229569 282.16169724 -181.59566372 282.24550531 -183.12896347 282.3305378 C-191.75858862 282.80838014 -200.35501593 283.11731488 -209 283 C-209.51343389 253.08933288 -210.02340271 223.17860814 -210.52872908 193.26780298 C-210.58878916 189.71295872 -210.64887789 186.15811495 -210.70898438 182.60327148 C-210.72692806 181.54199533 -210.72692806 181.54199533 -210.74523425 180.45927925 C-210.937394 169.09804144 -211.13185937 157.73684426 -211.32722163 146.37566113 C-211.52857584 134.6629356 -211.72734861 122.95016818 -211.92386818 111.23736054 C-212.03393037 104.68170773 -212.14515348 98.1260783 -212.25921631 91.5704937 C-212.76634967 62.37764792 -213.15091097 33.1976339 -213 4 C-201.58517919 3.10140964 -190.21318097 2.77224667 -178.76733398 2.61108398 C-176.88324987 2.58170781 -174.99917099 2.55199425 -173.11509705 2.52197266 C-168.04554443 2.44214585 -162.97593225 2.36701972 -157.90629458 2.29281878 C-152.58397738 2.21412586 -147.26172749 2.13111146 -141.93946838 2.04859924 C-133.01526501 1.91083382 -124.09102363 1.7758248 -115.16674805 1.64282227 C-102.58412239 1.45529479 -90.00157532 1.26285951 -77.41903961 1.06940353 C-60.55717766 0.81041055 -43.69529235 0.5527906 -26.83332253 0.30091095 C-25.01202544 0.27364988 -23.19073059 0.24623933 -21.36943817 0.21866798 C-18.88284928 0.18106572 -16.39625253 0.14403452 -13.90965271 0.10716248 C-13.19029948 0.09617175 -12.47094625 0.08518103 -11.72979444 0.07385725 C-7.81948454 0.01659509 -3.91071681 -0.01045344 0 0 Z " fill="#9B2C6D" transform="translate(316,371)"/>
<path d="M0 0 C9.20602869 6.38023996 15.51986707 16.25682309 18.390625 27.03125 C20.46113096 41.54591932 18.67216193 54.76970916 9.7734375 66.71484375 C3.42520258 73.57919533 -3.38818956 77.0650918 -12.734375 77.953125 C-22.54568063 78.23135606 -30.02716906 75.95968364 -37.5390625 69.52734375 C-41.87376841 65.31629031 -45.37745927 61.04800886 -48.2265625 55.71484375 C-48.6390625 54.95300781 -49.0515625 54.19117188 -49.4765625 53.40625 C-54.18053522 42.93664405 -53.88977451 28.91935832 -50.6640625 18.02734375 C-46.91305345 8.69588615 -40.17474495 0.72686373 -30.84765625 -3.31640625 C-19.85313866 -7.0328629 -10.04796693 -5.799616 0 0 Z M-25.2265625 23.71484375 C-29.28012839 28.98447941 -28.97743849 35.36577006 -28.2265625 41.71484375 C-26.61420603 46.99401091 -23.67204222 51.40657977 -19.2265625 54.71484375 C-15.7265625 55.54817708 -15.7265625 55.54817708 -12.2265625 54.71484375 C-9.06701945 52.17347216 -7.51115364 50.56861716 -6.2265625 46.71484375 C-5.58458393 39.02162519 -5.39484567 32.06331311 -10.2265625 25.71484375 C-15.5418694 20.53241952 -18.84698963 19.50704037 -25.2265625 23.71484375 Z " fill="#9B2C6D" transform="translate(557.2265625,513.28515625)"/>
<path d="M0 0 C7.30515519 4.85096749 11.63721437 11.62095844 14 20 C15.23726052 31.46623996 12.45852976 38.74277401 6 48 C5.34 49.32 4.68 50.64 4 52 C10.93 51.01 10.93 51.01 18 50 C18.33931227 52.66602496 18.67157176 55.33263014 19 58 C19.09539062 58.74378906 19.19078125 59.48757813 19.2890625 60.25390625 C19.37929688 60.99511719 19.46953125 61.73632812 19.5625 62.5 C19.64628906 63.1703125 19.73007812 63.840625 19.81640625 64.53125 C20.0763226 68.02629536 20.02576849 71.4954859 20 75 C13.27481724 76.00297816 6.5486556 76.99918022 -0.17822266 77.99072266 C-2.46556207 78.32868767 -4.75267463 78.66819171 -7.03955078 79.00927734 C-10.33046695 79.49983981 -13.62216453 79.98482541 -16.9140625 80.46875 C-17.93303619 80.62186646 -18.95200989 80.77498291 -20.00186157 80.93273926 C-24.70868648 81.61947507 -29.22735195 82.19797651 -34 82 C-34.50534727 79.27172635 -35.00443845 76.54255306 -35.5 73.8125 C-35.64308594 73.04357422 -35.78617187 72.27464844 -35.93359375 71.48242188 C-37.51472713 62.71089622 -37.51472713 62.71089622 -37 60 C-34.83984375 58.2265625 -34.83984375 58.2265625 -31.9375 56.625 C-24.74041496 52.35115259 -17.99571311 47.11271495 -15 39 C-13.92069106 34.25848419 -13.37070266 30.46836045 -15.3125 25.9375 C-16.86175156 23.91047847 -16.86175156 23.91047847 -19 23 C-25.04653709 22.93953463 -29.21613903 24.14957532 -34 28 C-34.66 28.66 -35.32 29.32 -36 30 C-38.62262176 24.94822858 -41.14536452 19.86386378 -43.375 14.625 C-43.71273438 13.83351563 -44.05046875 13.04203125 -44.3984375 12.2265625 C-45.09489154 9.64877807 -45.00645777 8.4579823 -44 6 C-34.35715977 -6.48264107 -12.78824913 -7.50057599 0 0 Z " fill="#9B2C6D" transform="translate(483,522)"/>
</svg>
